<?xml version="1.0" encoding="UTF-8"?>
<svg version="1.1" xmlns="http://www.w3.org/2000/svg" width="40" height="40">
<path d="M0 0 C9.57 0 19.14 0 29 0 C28.34 1.32 27.68 2.64 27 4 C26.505 3.01 26.505 3.01 26 2 C23.36 2.66 20.72 3.32 18 4 C18 3.34 18 2.68 18 2 C17.34 2 16.68 2 16 2 C16.33 2.99 16.66 3.98 17 5 C18.32 5 19.64 5 21 5 C21.33 6.98 21.66 8.96 22 11 C22.66 11 23.32 11 24 11 C24 9.02 24 7.04 24 5 C25.65 5 27.3 5 29 5 C30.28317892 8.84953676 30.06643637 11.94738135 30 16 C30.66 16 31.32 16 32 16 C32 16.99 32 17.98 32 19 C30.02 19 28.04 19 26 19 C26 20.32 26 21.64 26 23 C26.66 23 27.32 23 28 23 C28 27.95 28 32.9 28 38 C26.68 38 25.36 38 24 38 C24 38.66 24 39.32 24 40 C21.36 40 18.72 40 16 40 C16 39.34 16 38.68 16 38 C11.38 38 6.76 38 2 38 C2 38.66 2 39.32 2 40 C-0.31 40 -2.62 40 -5 40 C-5 39.34 -5 38.68 -5 38 C-5.99 38 -6.98 38 -8 38 C-8 34.37 -8 30.74 -8 27 C-1.07 27 5.86 27 13 27 C13 25.02 13 23.04 13 21 C10.36 21 7.72 21 5 21 C5 22.65 5 24.3 5 26 C3.35 26 1.7 26 0 26 C0.33 24.35 0.66 22.7 1 21 C0.195625 21.020625 -0.60875 21.04125 -1.4375 21.0625 C-4 21 -4 21 -5 20 C-5.14115161 17.32941149 -5.04247107 14.67567762 -5 12 C-4.360625 11.773125 -3.72125 11.54625 -3.0625 11.3125 C-0.72806339 10.14749104 -0.72806339 10.14749104 -0.25 7.375 C-0.1675 6.59125 -0.085 5.8075 0 5 C1.65 5 3.3 5 5 5 C5 6.98 5 8.96 5 11 C5.66 11 6.32 11 7 11 C7.33 9.02 7.66 7.04 8 5 C9.65 5 11.3 5 13 5 C13 4.01 13 3.02 13 2 C12.34 2 11.68 2 11 2 C10.67 2.66 10.34 3.32 10 4 C7.69 3.34 5.38 2.68 3 2 C2.67 2.66 2.34 3.32 2 4 C1.34 2.68 0.68 1.36 0 0 Z " fill="#C3B6B1" transform="translate(8,0)"/>
<path d="M0 0 C9.57 0 19.14 0 29 0 C28.34 1.32 27.68 2.64 27 4 C26.67 3.34 26.34 2.68 26 2 C23.36 2.66 20.72 3.32 18 4 C18 3.34 18 2.68 18 2 C17.34 2 16.68 2 16 2 C16.33 2.99 16.66 3.98 17 5 C18.32 5 19.64 5 21 5 C21.33 7.31 21.66 9.62 22 12 C17.71 12 13.42 12 9 12 C9 14.97 9 17.94 9 21 C7.68 21 6.36 21 5 21 C5 22.65 5 24.3 5 26 C3.35 26 1.7 26 0 26 C0.33 24.35 0.66 22.7 1 21 C0.195625 21.020625 -0.60875 21.04125 -1.4375 21.0625 C-4 21 -4 21 -5 20 C-5.14115161 17.32941149 -5.04247107 14.67567762 -5 12 C-4.360625 11.773125 -3.72125 11.54625 -3.0625 11.3125 C-0.72806339 10.14749104 -0.72806339 10.14749104 -0.25 7.375 C-0.1675 6.59125 -0.085 5.8075 0 5 C1.65 5 3.3 5 5 5 C5 6.98 5 8.96 5 11 C5.66 11 6.32 11 7 11 C7.33 9.02 7.66 7.04 8 5 C9.65 5 11.3 5 13 5 C13 4.01 13 3.02 13 2 C12.34 2 11.68 2 11 2 C10.67 2.66 10.34 3.32 10 4 C7.69 3.34 5.38 2.68 3 2 C2.67 2.66 2.34 3.32 2 4 C1.34 2.68 0.68 1.36 0 0 Z " fill="#DDD0C9" transform="translate(8,0)"/>
<path d="M0 0 C1.65 0 3.3 0 5 0 C6.28317892 3.84953676 6.06643637 6.94738135 6 11 C6.66 11 7.32 11 8 11 C8 11.99 8 12.98 8 14 C6.02 14 4.04 14 2 14 C2 14.66 2 15.32 2 16 C-3.61 16 -9.22 16 -15 16 C-15 13.03 -15 10.06 -15 7 C-9.91913204 6.15318867 -5.15171623 5.90961901 0 6 C0 4.02 0 2.04 0 0 Z " fill="#DACCC8" transform="translate(32,5)"/>
<path d="M0 0 C9.57 0 19.14 0 29 0 C28.34 1.32 27.68 2.64 27 4 C26.67 3.34 26.34 2.68 26 2 C23.36 2.66 20.72 3.32 18 4 C18 3.34 18 2.68 18 2 C17.34 2 16.68 2 16 2 C16.33 2.99 16.66 3.98 17 5 C18.32 5 19.64 5 21 5 C21.33 7.31 21.66 9.62 22 12 C15.84765625 12.09765625 15.84765625 12.09765625 14 12 C13 11 13 11 12.90234375 8.93359375 C12.91394531 8.10988281 12.92554688 7.28617187 12.9375 6.4375 C12.94652344 5.61121094 12.95554687 4.78492188 12.96484375 3.93359375 C12.97644531 3.29550781 12.98804688 2.65742187 13 2 C12.34 2 11.68 2 11 2 C10.67 2.66 10.34 3.32 10 4 C7.69 3.34 5.38 2.68 3 2 C2.67 2.66 2.34 3.32 2 4 C1.34 2.68 0.68 1.36 0 0 Z " fill="#7B6E6E" transform="translate(8,0)"/>
<path d="M0 0 C1.32 0 2.64 0 4 0 C4 3.3 4 6.6 4 10 C5.98 10 7.96 10 10 10 C10 10.99 10 11.98 10 13 C7.69 13 5.38 13 3 13 C3 12.34 3 11.68 3 11 C2.01 11 1.02 11 0 11 C0 7.37 0 3.74 0 0 Z " fill="#AB9F9F" transform="translate(0,27)"/>
<path d="M0 0 C2.00720923 0.28674418 4.0085944 0.61866701 6 1 C6 2.32 6 3.64 6 5 C7.65 5 9.3 5 11 5 C11 5.33 11 5.66 11 6 C8.69 6 6.38 6 4 6 C4 7.32 4 8.64 4 10 C2.35 9.67 0.7 9.34 -1 9 C-1.09765625 2.84765625 -1.09765625 2.84765625 -1 1 C-0.67 0.67 -0.34 0.34 0 0 Z " fill="#D0C0BA" transform="translate(4,11)"/>
<path d="M0 0 C1.65 0 3.3 0 5 0 C6.28317892 3.84953676 6.06643637 6.94738135 6 11 C4.35 11 2.7 11 1 11 C-0.17571451 7.32589215 -0.07366746 3.83070817 0 0 Z " fill="#05BBF7" transform="translate(32,5)"/>
<path d="M0 0 C2.31 0 4.62 0 7 0 C7 1.32 7 2.64 7 4 C6.34 4 5.68 4 5 4 C5 5.65 5 7.3 5 9 C3.35 9 1.7 9 0 9 C0 6.03 0 3.06 0 0 Z " fill="#676060" transform="translate(8,17)"/>
<path d="M0 0 C3.63 0 7.26 0 11 0 C10.67 1.32 10.34 2.64 10 4 C6.7 4 3.4 4 0 4 C0 2.68 0 1.36 0 0 Z " fill="#7A7271" transform="translate(6,27)"/>
<path d="M0 0 C1.65 0 3.3 0 5 0 C5 2.31 5 4.62 5 7 C3.35 7 1.7 7 0 7 C-0.93423645 3.98968256 -1.04449911 3.13349732 0 0 Z " fill="#66C73B" transform="translate(16,5)"/>
<path d="M0 0 C1.32 0 2.64 0 4 0 C4.33 2.31 4.66 4.62 5 7 C3.02 7 1.04 7 -1 7 C-1.04254356 5.00045254 -1.04080783 2.99958364 -1 1 C-0.67 0.67 -0.34 0.34 0 0 Z " fill="#FC4F90" transform="translate(25,5)"/>
<path d="M0 0 C1.65 0 3.3 0 5 0 C5 2.31 5 4.62 5 7 C3.35 7 1.7 7 0 7 C-1.33332095 4.3333581 -0.67102033 2.83319697 0 0 Z " fill="#FBD008" transform="translate(8,5)"/>
<path d="M0 0 C0.99 0 1.98 0 3 0 C3 2.97 3 5.94 3 9 C2.01 9 1.02 9 0 9 C0 6.03 0 3.06 0 0 Z " fill="#7D7373" transform="translate(33,29)"/>
<path d="M0 0 C0.99 0 1.98 0 3 0 C3.33 2.64 3.66 5.28 4 8 C3.34 8 2.68 8 2 8 C2 7.34 2 6.68 2 6 C1.34 6 0.68 6 0 6 C0 4.02 0 2.04 0 0 Z " fill="#E6E0DD" transform="translate(29,30)"/>
<path d="M0 0 C2.31 0 4.62 0 7 0 C7 0.99 7 1.98 7 3 C4.69 3 2.38 3 0 3 C0 2.01 0 1.02 0 0 Z " fill="#737376" transform="translate(33,16)"/>
</svg>
