<svg width="15" height="15" viewBox="0 0 15 15" fill="none" xmlns="http://www.w3.org/2000/svg">
<path fill-rule="evenodd" clip-rule="evenodd" d="M9.11762 2.08796C8.0579 1.80401 6.9421 1.80401 5.88238 2.08796C5.54896 2.1773 5.20625 1.97944 5.11692 1.64602C5.02758 1.31261 5.22544 0.969895 5.55886 0.880556C6.83052 0.539815 8.16948 0.539815 9.44114 0.880556C9.77456 0.969895 9.97242 1.31261 9.88308 1.64602C9.79375 1.97944 9.45103 2.1773 9.11762 2.08796ZM11.16 2.27175C11.3688 1.99685 11.7608 1.94322 12.0357 2.15197C12.8302 2.75529 13.4964 3.51105 13.9952 4.375C14.1678 4.67393 14.0654 5.05618 13.7664 5.22876C13.4675 5.40135 13.0852 5.29893 12.9127 5C12.497 4.28004 11.9419 3.65024 11.2798 3.14748C11.0049 2.93873 10.9513 2.54665 11.16 2.27175ZM7.5 3.75C5.08375 3.75 3.125 5.70875 3.125 8.125C3.125 10.5412 5.08375 12.5 7.5 12.5C9.91625 12.5 11.875 10.5412 11.875 8.125C11.875 5.70875 9.91625 3.75 7.5 3.75ZM1.875 8.125C1.875 5.0184 4.3934 2.5 7.5 2.5C10.6066 2.5 13.125 5.0184 13.125 8.125C13.125 11.2316 10.6066 13.75 7.5 13.75C4.3934 13.75 1.875 11.2316 1.875 8.125ZM10.4419 6.12056C10.686 6.36464 10.686 6.76036 10.4419 7.00444L7.31694 10.1294C7.07286 10.3735 6.67714 10.3735 6.43306 10.1294L4.87056 8.56694C4.62648 8.32286 4.62648 7.92714 4.87056 7.68306C5.11464 7.43898 5.51036 7.43898 5.75444 7.68306L6.875 8.80362L9.55806 6.12056C9.80214 5.87648 10.1979 5.87648 10.4419 6.12056Z" fill="black"/>
</svg>
