<svg width="17" height="16" viewBox="0 0 17 16" fill="none" xmlns="http://www.w3.org/2000/svg">
<g clip-path="url(#clip0_226_289)">
<path fill-rule="evenodd" clip-rule="evenodd" d="M5.20036 0.93335C5.56855 0.93335 5.86702 1.23183 5.86702 1.60002V2.26668H10.5337V1.60002C10.5337 1.23183 10.8322 0.93335 11.2004 0.93335C11.5685 0.93335 11.867 1.23183 11.867 1.60002V2.28314C13.5515 2.45038 14.867 3.87157 14.867 5.60002V11.6C14.867 13.441 13.3746 14.9333 11.5337 14.9333H4.86702C3.02608 14.9333 1.53369 13.441 1.53369 11.6V5.60002C1.53369 3.87157 2.84925 2.45038 4.53369 2.28314V1.60002C4.53369 1.23183 4.83217 0.93335 5.20036 0.93335ZM2.98083 4.93335H13.4199C13.1453 4.15655 12.4045 3.60002 11.5337 3.60002H4.86702C3.99621 3.60002 3.25539 4.15655 2.98083 4.93335ZM13.5337 6.26668H2.86702V11.6C2.86702 12.7046 3.76246 13.6 4.86702 13.6H11.5337C12.6383 13.6 13.5337 12.7046 13.5337 11.6V6.26668ZM4.20036 8.26668C4.20036 7.89849 4.49884 7.60002 4.86702 7.60002H7.53369C7.90188 7.60002 8.20036 7.89849 8.20036 8.26668V10.9333C8.20036 11.3015 7.90188 11.6 7.53369 11.6H4.86702C4.49884 11.6 4.20036 11.3015 4.20036 10.9333V8.26668ZM6.86702 8.93335H5.53369V10.2667H6.86702V8.93335Z" fill="black"/>
</g>
<defs>
<clipPath id="clip0_226_289">
<rect width="16" height="16" fill="white" transform="translate(0.200195 0.266693)"/>
</clipPath>
</defs>
</svg>
