<?xml version="1.0" encoding="UTF-8"?>
<svg version="1.1" xmlns="http://www.w3.org/2000/svg" width="41" height="40">
<path d="M0 0 C0 0.66 0 1.32 0 2 C0.99 2.33 1.98 2.66 3 3 C3.02694851 4.95825873 3.04637218 6.91662226 3.0625 8.875 C3.07410156 9.96554687 3.08570313 11.05609375 3.09765625 12.1796875 C3 15 3 15 2 17 C1.01 17 0.02 17 -1 17 C-1 21.29 -1 25.58 -1 30 C-0.01 30 0.98 30 2 30 C1.505 31.485 1.505 31.485 1 33 C-1.64 33 -4.28 33 -7 33 C-7.33 34.65 -7.66 36.3 -8 38 C-10.97 38 -13.94 38 -17 38 C-17 37.01 -17 36.02 -17 35 C-15.02 35 -13.04 35 -11 35 C-11 31.37 -11 27.74 -11 24 C-12.98 24 -14.96 24 -17 24 C-17.0825 24.639375 -17.165 25.27875 -17.25 25.9375 C-18.29520372 30.20541517 -20.14091826 34.03107667 -22 38 C-23.65 37.67 -25.3 37.34 -27 37 C-27 34.36 -27 31.72 -27 29 C-27.99 29.33 -28.98 29.66 -30 30 C-30.33 32.64 -30.66 35.28 -31 38 C-31.99 38 -32.98 38 -34 38 C-34.103125 36.783125 -34.20625 35.56625 -34.3125 34.3125 C-34.87201902 29.05135102 -36.14486377 24.03095882 -37.4765625 18.91796875 C-37.97826019 16.12119133 -37.95568895 14.63133023 -37 12 C-36.01 12.33 -35.02 12.66 -34 13 C-33.3125 15.0625 -33.3125 15.0625 -33 17 C-32.731875 16.030625 -32.46375 15.06125 -32.1875 14.0625 C-31.795625 13.051875 -31.40375 12.04125 -31 11 C-30.01 10.67 -29.02 10.34 -28 10 C-28.33 9.67 -28.66 9.34 -29 9 C-29.1875 6.5625 -29.1875 6.5625 -29 4 C-28.34 3.34 -27.68 2.68 -27 2 C-22.44444444 2.55555556 -22.44444444 2.55555556 -21 4 C-20.95936168 5.66617115 -20.957279 7.33388095 -21 9 C-21.99 9.33 -22.98 9.66 -24 10 C-23.67 12.31 -23.34 14.62 -23 17 C-20.36 17 -17.72 17 -15 17 C-14.87625 15.88625 -14.7525 14.7725 -14.625 13.625 C-14 10 -14 10 -12 8 C-10.23537317 11.08809695 -10 12.23312136 -10 16 C-9.01 16 -8.02 16 -7 16 C-7.11859375 15.09636719 -7.2371875 14.19273438 -7.359375 13.26171875 C-7.48828125 12.08222656 -7.6171875 10.90273437 -7.75 9.6875 C-7.88921875 8.51574219 -8.0284375 7.34398437 -8.171875 6.13671875 C-8 3 -8 3 -6.265625 1.08203125 C-4 0 -4 0 0 0 Z M-6 17 C-5.34 17.66 -4.68 18.32 -4 19 C-4 18.34 -4 17.68 -4 17 C-4.66 17 -5.32 17 -6 17 Z " fill="#FA6571" transform="translate(38,1)"/>
<path d="M0 0 C0 0.66 0 1.32 0 2 C0.99 2.33 1.98 2.66 3 3 C3.02694851 4.95825873 3.04637218 6.91662226 3.0625 8.875 C3.07410156 9.96554687 3.08570313 11.05609375 3.09765625 12.1796875 C3 15 3 15 2 17 C1.01 17 0.02 17 -1 17 C-1 21.29 -1 25.58 -1 30 C-0.01 30 0.98 30 2 30 C1.67 30.99 1.34 31.98 1 33 C-1.31 33 -3.62 33 -6 33 C-5.67 32.01 -5.34 31.02 -5 30 C-4.77548542 27.77425665 -4.59217122 25.54418481 -4.4375 23.3125 C-4.35371094 22.13300781 -4.26992188 20.95351563 -4.18359375 19.73828125 C-4.12300781 18.83464844 -4.06242187 17.93101563 -4 17 C-4.99 17 -5.98 17 -7 17 C-7.27561917 14.73213358 -7.51971457 12.46041721 -7.75 10.1875 C-7.88921875 8.92292969 -8.0284375 7.65835937 -8.171875 6.35546875 C-8 3 -8 3 -6.265625 1.05078125 C-4 0 -4 0 0 0 Z " fill="#373C40" transform="translate(38,1)"/>
<path d="M0 0 C2.62386487 3.06117568 3 3.73173127 3 8 C3.61875 8.12375 4.2375 8.2475 4.875 8.375 C7 9 7 9 9 11 C9.30078125 13.49609375 9.30078125 13.49609375 9.3125 16.4375 C9.33763672 17.88962891 9.33763672 17.88962891 9.36328125 19.37109375 C8.9533659 22.33747041 8.32042696 23.19386292 6 25 C5 24 5 24 4.90234375 21.49609375 C4.91394531 20.48675781 4.92554688 19.47742188 4.9375 18.4375 C4.94652344 17.42558594 4.95554687 16.41367187 4.96484375 15.37109375 C4.97644531 14.58863281 4.98804688 13.80617188 5 13 C1.7 13 -1.6 13 -5 13 C-5 11.68 -5 10.36 -5 9 C-4.01 9 -3.02 9 -2 9 C-1.7834375 7.329375 -1.7834375 7.329375 -1.5625 5.625 C-1 2 -1 2 0 0 Z " fill="#63AEFE" transform="translate(25,9)"/>
<path d="M0 0 C0.99 0.33 1.98 0.66 3 1 C3.66 5.29 4.32 9.58 5 14 C7.97 14 10.94 14 14 14 C14 14.99 14 15.98 14 17 C11.69 17.33 9.38 17.66 7 18 C6.67 20.64 6.34 23.28 6 26 C5.01 26 4.02 26 3 26 C2.896875 24.783125 2.79375 23.56625 2.6875 22.3125 C2.12798098 17.05135102 0.85513623 12.03095882 -0.4765625 6.91796875 C-0.97826019 4.12119133 -0.95568895 2.63133023 0 0 Z " fill="#95512A" transform="translate(1,13)"/>
<path d="M0 0 C4.62 0 9.24 0 14 0 C14 5.61 14 11.22 14 17 C11.03 17 8.06 17 5 17 C5 16.01 5 15.02 5 14 C6.98 14 8.96 14 11 14 C11 10.37 11 6.74 11 3 C8.42838542 2.8046875 5.85677083 2.609375 3.28515625 2.4140625 C2.15400391 2.20910156 2.15400391 2.20910156 1 2 C0.67 1.34 0.34 0.68 0 0 Z " fill="#955029" transform="translate(16,22)"/>
<path d="M0 0 C1.65 0 3.3 0 5 0 C4.34580901 5.06998019 2.1453591 9.41990777 0 14 C-1.65 13.67 -3.3 13.34 -5 13 C-5 10.36 -5 7.72 -5 5 C-3.68 4.67 -2.36 4.34 -1 4 C-0.67 2.68 -0.34 1.36 0 0 Z " fill="#FDB59E" transform="translate(16,25)"/>
<path d="M0 0 C2.04795423 1.9626228 2.94976638 3.4277307 3.19921875 6.26953125 C3.18858877 8.51954383 3.12958525 10.75385562 3 13 C0.36 13 -2.28 13 -5 13 C-5 11.68 -5 10.36 -5 9 C-4.01 9 -3.02 9 -2 9 C-1.7834375 7.329375 -1.7834375 7.329375 -1.5625 5.625 C-1 2 -1 2 0 0 Z " fill="#9BC8E4" transform="translate(25,9)"/>
<path d="M0 0 C0.99 0 1.98 0 3 0 C3 4.29 3 8.58 3 13 C3.99 13 4.98 13 6 13 C5.67 13.99 5.34 14.98 5 16 C2.69 16 0.38 16 -2 16 C-1.67 15.01 -1.34 14.02 -1 13 C-0.77548542 10.77425665 -0.59217122 8.54418481 -0.4375 6.3125 C-0.35371094 5.13300781 -0.26992188 3.95351563 -0.18359375 2.73828125 C-0.12300781 1.83464844 -0.06242187 0.93101563 0 0 Z " fill="#95522B" transform="translate(34,18)"/>
<path d="M0 0 C4.55555556 0.55555556 4.55555556 0.55555556 6 2 C6.25 4.4375 6.25 4.4375 6 7 C3 9 3 9 0.875 8.6875 C-1 8 -1 8 -2 7 C-2.1875 4.5625 -2.1875 4.5625 -2 2 C-1.34 1.34 -0.68 0.68 0 0 Z " fill="#FFB197" transform="translate(11,3)"/>
<path d="M0 0 C2.97 0 5.94 0 9 0 C9 1.32 9 2.64 9 4 C6.1875 4.625 6.1875 4.625 3 5 C2.01 4.34 1.02 3.68 0 3 C0 2.01 0 1.02 0 0 Z " fill="#FCB19B" transform="translate(11,18)"/>
<path d="M0 0 C0.99 0.33 1.98 0.66 3 1 C2.67 3.97 2.34 6.94 2 10 C1.01 10 0.02 10 -1 10 C-1.02689216 8.52093108 -1.04634621 7.04172517 -1.0625 5.5625 C-1.07410156 4.73878906 -1.08570313 3.91507813 -1.09765625 3.06640625 C-1 1 -1 1 0 0 Z " fill="#568596" transform="translate(5,29)"/>
<path d="M0 0 C0.99 0 1.98 0 3 0 C3 2.97 3 5.94 3 9 C2.01 8.67 1.02 8.34 0 8 C0 5.36 0 2.72 0 0 Z " fill="#5B889A" transform="translate(11,30)"/>
</svg>
