<?xml version="1.0" encoding="UTF-8"?>
<svg version="1.1" xmlns="http://www.w3.org/2000/svg" width="41" height="41">
<path d="M0 0 C0.96808594 0.02835938 1.93617187 0.05671875 2.93359375 0.0859375 C3.90425781 0.09882812 4.87492187 0.11171875 5.875 0.125 C8.37109375 0.4609375 8.37109375 0.4609375 10.37109375 2.4609375 C10.49609375 5.5859375 10.49609375 5.5859375 10.37109375 8.4609375 C11.03109375 8.4609375 11.69109375 8.4609375 12.37109375 8.4609375 C12.37109375 10.1109375 12.37109375 11.7609375 12.37109375 13.4609375 C11.38109375 13.4609375 10.39109375 13.4609375 9.37109375 13.4609375 C9.15453125 14.5746875 9.15453125 14.5746875 8.93359375 15.7109375 C8.46921883 17.98121489 7.95245806 20.21853229 7.37109375 22.4609375 C8.48484375 22.7703125 9.59859375 23.0796875 10.74609375 23.3984375 C14.37109375 24.4609375 14.37109375 24.4609375 16.37109375 25.4609375 C16.3979447 27.94017551 16.41785922 30.4191259 16.43359375 32.8984375 C16.44197266 33.60548828 16.45035156 34.31253906 16.45898438 35.04101562 C16.46762963 36.84787309 16.42329386 38.65481353 16.37109375 40.4609375 C15.37109375 41.4609375 15.37109375 41.4609375 12.87084961 41.57446289 C11.78682861 41.56922607 10.70280762 41.56398926 9.5859375 41.55859375 C7.83120117 41.55375977 7.83120117 41.55375977 6.04101562 41.54882812 C4.1934668 41.53625977 4.1934668 41.53625977 2.30859375 41.5234375 C0.45524414 41.51666992 0.45524414 41.51666992 -1.43554688 41.50976562 C-4.50002038 41.49793368 -7.56446918 41.47999758 -10.62890625 41.4609375 C-10.62890625 36.1809375 -10.62890625 30.9009375 -10.62890625 25.4609375 C-4.62890625 22.4609375 -4.62890625 22.4609375 -1.62890625 22.4609375 C-1.95890625 21.7184375 -2.28890625 20.9759375 -2.62890625 20.2109375 C-3.62890625 17.4609375 -3.62890625 17.4609375 -3.62890625 13.4609375 C-4.61890625 13.4609375 -5.60890625 13.4609375 -6.62890625 13.4609375 C-6.54105287 12.04316568 -6.43285978 10.62664711 -6.31640625 9.2109375 C-6.25839844 8.42203125 -6.20039063 7.633125 -6.140625 6.8203125 C-5.28178437 2.86046713 -4.1265811 0.72353131 0 0 Z " fill="#FDC3B5" transform="translate(17.62890625,-0.4609375)"/>
<path d="M0 0 C0.598125 0.20625 1.19625 0.4125 1.8125 0.625 C1.99701025 10.03502278 1.99701025 10.03502278 0.8125 14.625 C1.4725 14.625 2.1325 14.625 2.8125 14.625 C2.8125 11.325 2.8125 8.025 2.8125 4.625 C4.8125 6.625 6.8125 8.625 8.8125 10.625 C10.1325 8.315 11.4525 6.005 12.8125 3.625 C13.4725 3.955 14.1325 4.285 14.8125 4.625 C14.4825 7.595 14.1525 10.565 13.8125 13.625 C14.4725 13.625 15.1325 13.625 15.8125 13.625 C15.8125 9.005 15.8125 4.385 15.8125 -0.375 C19.8125 0.625 19.8125 0.625 21.8125 1.625 C21.83935095 4.10423801 21.85926547 6.5831884 21.875 9.0625 C21.88337891 9.76955078 21.89175781 10.47660156 21.90039062 11.20507812 C21.90903588 13.01193559 21.86470011 14.81887603 21.8125 16.625 C20.8125 17.625 20.8125 17.625 18.31225586 17.73852539 C17.22823486 17.73328857 16.14421387 17.72805176 15.02734375 17.72265625 C13.85751953 17.71943359 12.68769531 17.71621094 11.48242188 17.71289062 C9.63487305 17.70032227 9.63487305 17.70032227 7.75 17.6875 C5.89665039 17.68073242 5.89665039 17.68073242 4.00585938 17.67382812 C0.94135883 17.66199608 -2.12304721 17.64551173 -5.1875 17.625 C-5.26824203 14.99938891 -5.3278623 12.37624324 -5.375 9.75 C-5.40013672 9.00363281 -5.42527344 8.25726563 -5.45117188 7.48828125 C-5.48046875 5.3203125 -5.48046875 5.3203125 -5.1875 1.625 C-2.1875 -0.375 -2.1875 -0.375 0 0 Z " fill="#8F9BD4" transform="translate(12.1875,23.375)"/>
<path d="M0 0 C1.52519276 0.08937803 3.04681929 0.24537146 4.5625 0.4375 C5.38878906 0.53933594 6.21507812 0.64117187 7.06640625 0.74609375 C7.70449219 0.82988281 8.34257812 0.91367188 9 1 C9 2.65 9 4.3 9 6 C8.01 6 7.02 6 6 6 C5.8453125 7.175625 5.8453125 7.175625 5.6875 8.375 C5 11 5 11 2 13 C-0.96076291 12.64111965 -1.84658021 12.15341979 -4 10 C-4.125 7.375 -4.125 7.375 -4 5 C-3.34 5 -2.68 5 -2 5 C-1.7834375 4.0409375 -1.7834375 4.0409375 -1.5625 3.0625 C-1 1 -1 1 0 0 Z " fill="#FAE5DD" transform="translate(21,7)"/>
<path d="M0 0 C0.9796875 0.00515625 1.959375 0.0103125 2.96875 0.015625 C3.9484375 0.01046875 4.928125 0.0053125 5.9375 0 C8.46875 0.265625 8.46875 0.265625 10.46875 2.265625 C10.59375 5.390625 10.59375 5.390625 10.46875 8.265625 C9.705625 8.100625 8.9425 7.935625 8.15625 7.765625 C5.43278764 7.17417104 5.43278764 7.17417104 2.46875 7.265625 C2.13875 7.595625 1.80875 7.925625 1.46875 8.265625 C-0.86422433 8.30655437 -3.19830225 8.30804223 -5.53125 8.265625 C-4.51492347 0.47378827 -4.51492347 0.47378827 0 0 Z " fill="#565E85" transform="translate(17.53125,-0.265625)"/>
<path d="M0 0 C5 0 5 0 7.875 2.0625 C10 5 10 5 9.8125 8.8125 C9.544375 9.864375 9.27625 10.91625 9 12 C8.01 12 7.02 12 6 12 C4.3125 9.5 4.3125 9.5 3 7 C2.67 9.97 2.34 12.94 2 16 C1.34 16 0.68 16 0 16 C0 10.72 0 5.44 0 0 Z " fill="#E9DAB9" transform="translate(13,22)"/>
<path d="M0 0 C1.98 0.99 1.98 0.99 4 2 C4 6.95 4 11.9 4 17 C2.68 17.33 1.36 17.66 0 18 C0 12.06 0 6.12 0 0 Z " fill="#E5EBFB" transform="translate(30,23)"/>
<path d="M0 0 C0.66 0.66 1.32 1.32 2 2 C1.01 2.66 0.02 3.32 -1 4 C-1.33 4.99 -1.66 5.98 -2 7 C-2.66 7 -3.32 7 -4 7 C-3.34 9.31 -2.68 11.62 -2 14 C-3.32 14 -4.64 14 -6 14 C-6.33 12.02 -6.66 10.04 -7 8 C-7.99 8 -8.98 8 -10 8 C-10 6.35 -10 4.7 -10 3 C-8.72125 2.87625 -7.4425 2.7525 -6.125 2.625 C-2.65209064 2.30957601 -2.65209064 2.30957601 0 0 Z " fill="#F2D4CA" transform="translate(21,5)"/>
<path d="M0 0 C0.66 0 1.32 0 2 0 C2 5.61 2 11.22 2 17 C1.01 17 0.02 17 -1 17 C-1.02684679 14.35409986 -1.04676357 11.70846904 -1.0625 9.0625 C-1.07087891 8.30775391 -1.07925781 7.55300781 -1.08789062 6.77539062 C-1.09652441 4.85005687 -1.05224333 2.92464419 -1 1 C-0.67 0.67 -0.34 0.34 0 0 Z " fill="#E0E9F7" transform="translate(8,24)"/>
<path d="M0 0 C0.99 0.33 1.98 0.66 3 1 C3 5.62 3 10.24 3 15 C2.34 15 1.68 15 1 15 C1.01160156 14.36191406 1.02320312 13.72382812 1.03515625 13.06640625 C1.04417969 12.24011719 1.05320312 11.41382813 1.0625 10.5625 C1.07990234 9.32693359 1.07990234 9.32693359 1.09765625 8.06640625 C1.23267348 6.00836062 1.23267348 6.00836062 0 5 C-0.04063832 3.33382885 -0.042721 1.66611905 0 0 Z " fill="#E7D38F" transform="translate(25,22)"/>
<path d="M0 0 C2.0625 0.4375 2.0625 0.4375 4 1 C3.67 3.64 3.34 6.28 3 9 C2.01 9 1.02 9 0 9 C-0.87890625 2.84765625 -0.87890625 2.84765625 -1 1 C-0.67 0.67 -0.34 0.34 0 0 Z " fill="#D97EAC" transform="translate(19,25)"/>
<path d="M0 0 C0.66 0 1.32 0 2 0 C2.36923077 6.52307692 2.36923077 6.52307692 0.5 8.9375 C0.005 9.288125 -0.49 9.63875 -1 10 C-1 1 -1 1 0 0 Z " fill="#E3E9F7" transform="translate(23,22)"/>
<path d="M0 0 C1.65 0 3.3 0 5 0 C5 1.65 5 3.3 5 5 C3.68 5 2.36 5 1 5 C0.67 3.35 0.34 1.7 0 0 Z " fill="#FAD0C4" transform="translate(25,8)"/>
</svg>
